<svg width="35" height="34" viewBox="0 0 35 34" fill="none" xmlns="http://www.w3.org/2000/svg">
<g clip-path="url(#clip0_3_88)">
<path d="M8.75732 5.66675H7.34066C6.58921 5.66675 5.86854 5.96526 5.33719 6.49661C4.80584 7.02797 4.50732 7.74863 4.50732 8.50008V13.4584C4.50732 15.5249 5.32823 17.5067 6.78945 18.968C8.25067 20.4292 10.2325 21.2501 12.299 21.2501C14.3655 21.2501 16.3473 20.4292 17.8085 18.968C19.2698 17.5067 20.0907 15.5249 20.0907 13.4584V8.50008C20.0907 7.74863 19.7921 7.02797 19.2608 6.49661C18.7294 5.96526 18.0088 5.66675 17.2573 5.66675H15.8407" stroke="#0177F9" stroke-width="2" stroke-linecap="round" stroke-linejoin="round"/>
<path d="M11.5907 21.25C11.5907 22.3662 11.8105 23.4715 12.2377 24.5028C12.6648 25.5341 13.2909 26.4711 14.0802 27.2604C14.8695 28.0497 15.8066 28.6758 16.8378 29.103C17.8691 29.5301 18.9744 29.75 20.0907 29.75C21.2069 29.75 22.3122 29.5301 23.3435 29.103C24.3747 28.6758 25.3118 28.0497 26.1011 27.2604C26.8904 26.4711 27.5165 25.5341 27.9436 24.5028C28.3708 23.4715 28.5907 22.3662 28.5907 21.25V17" stroke="#0177F9" stroke-width="2" stroke-linecap="round" stroke-linejoin="round"/>
<path d="M15.8407 4.25V7.08333" stroke="#0177F9" stroke-width="2" stroke-linecap="round" stroke-linejoin="round"/>
<path d="M8.75732 4.25V7.08333" stroke="#0177F9" stroke-width="2" stroke-linecap="round" stroke-linejoin="round"/>
<path d="M28.5907 16.9999C30.1555 16.9999 31.424 15.7314 31.424 14.1666C31.424 12.6018 30.1555 11.3333 28.5907 11.3333C27.0259 11.3333 25.7573 12.6018 25.7573 14.1666C25.7573 15.7314 27.0259 16.9999 28.5907 16.9999Z" stroke="#0177F9" stroke-width="2" stroke-linecap="round" stroke-linejoin="round"/>
</g>
<defs>
<clipPath id="clip0_3_88">
<rect width="34" height="34" fill="white" transform="translate(0.257324)"/>
</clipPath>
</defs>
</svg>
