<svg width="35" height="34" viewBox="0 0 35 34" fill="none" xmlns="http://www.w3.org/2000/svg">
<g clip-path="url(#clip0_3_98)">
<path d="M20.0907 4.25V9.91667C20.0907 10.2924 20.2399 10.6527 20.5056 10.9184C20.7713 11.1841 21.1316 11.3333 21.5073 11.3333H27.174" stroke="#0177F9" stroke-width="2" stroke-linecap="round" stroke-linejoin="round"/>
<path d="M24.3407 29.75H10.174C9.42255 29.75 8.70188 29.4515 8.17053 28.9201C7.63917 28.3888 7.34066 27.6681 7.34066 26.9167V7.08333C7.34066 6.33189 7.63917 5.61122 8.17053 5.07986C8.70188 4.54851 9.42255 4.25 10.174 4.25H20.0907L27.174 11.3333V26.9167C27.174 27.6681 26.8755 28.3888 26.3441 28.9201C25.8128 29.4515 25.0921 29.75 24.3407 29.75Z" stroke="#0177F9" stroke-width="2" stroke-linecap="round" stroke-linejoin="round"/>
<path d="M13.0073 9.9165H14.424" stroke="#0177F9" stroke-width="2" stroke-linecap="round" stroke-linejoin="round"/>
<path d="M13.0073 18.4165H21.5073" stroke="#0177F9" stroke-width="2" stroke-linecap="round" stroke-linejoin="round"/>
<path d="M18.674 24.0835H21.5073" stroke="#0177F9" stroke-width="2" stroke-linecap="round" stroke-linejoin="round"/>
</g>
<defs>
<clipPath id="clip0_3_98">
<rect width="34" height="34" fill="white" transform="translate(0.257324)"/>
</clipPath>
</defs>
</svg>
