<svg width="35" height="34" viewBox="0 0 35 34" fill="none" xmlns="http://www.w3.org/2000/svg">
<g clip-path="url(#clip0_3_120)">
<path d="M4.50732 29.75H30.0073" stroke="#0177F9" stroke-width="2" stroke-linecap="round" stroke-linejoin="round"/>
<path d="M7.34065 29.75V7.08333C7.34065 6.33189 7.63916 5.61122 8.17052 5.07986C8.70187 4.54851 9.42254 4.25 10.174 4.25H24.3407C25.0921 4.25 25.8128 4.54851 26.3441 5.07986C26.8755 5.61122 27.174 6.33189 27.174 7.08333V29.75" stroke="#0177F9" stroke-width="2" stroke-linecap="round" stroke-linejoin="round"/>
<path d="M13.0073 29.75V24.0833C13.0073 23.3319 13.3058 22.6112 13.8372 22.0799C14.3685 21.5485 15.0892 21.25 15.8407 21.25H18.674C19.4254 21.25 20.1461 21.5485 20.6775 22.0799C21.2088 22.6112 21.5073 23.3319 21.5073 24.0833V29.75" stroke="#0177F9" stroke-width="2" stroke-linecap="round" stroke-linejoin="round"/>
<path d="M14.424 12.75H20.0907" stroke="#0177F9" stroke-width="2" stroke-linecap="round" stroke-linejoin="round"/>
<path d="M17.2573 9.9165V15.5832" stroke="#0177F9" stroke-width="2" stroke-linecap="round" stroke-linejoin="round"/>
</g>
<defs>
<clipPath id="clip0_3_120">
<rect width="34" height="34" fill="white" transform="translate(0.257324)"/>
</clipPath>
</defs>
</svg>
