<svg width="25" height="24" viewBox="0 0 25 24" fill="none" xmlns="http://www.w3.org/2000/svg">
<path d="M12.4093 2.10813C15.5012 2.10813 15.9228 2.10813 17.1877 2.10813C18.312 2.10813 18.8742 2.38922 19.2958 2.52976C19.858 2.81084 20.2796 2.95139 20.7013 3.37301C21.1229 3.79464 21.404 4.21627 21.5445 4.77843C21.6851 5.20006 21.8256 5.76223 21.9661 6.88657C21.9661 8.15145 21.9661 8.43253 21.9661 11.665C21.9661 14.8975 21.9661 15.1786 21.9661 16.4434C21.9661 17.5678 21.6851 18.1299 21.5445 18.5516C21.2634 19.1137 21.1229 19.5354 20.7013 19.957C20.2796 20.3786 19.858 20.6597 19.2958 20.8002C18.8742 20.9408 18.312 21.0813 17.1877 21.2219C15.9228 21.2219 15.6417 21.2219 12.4093 21.2219C9.17679 21.2219 8.89571 21.2219 7.63083 21.2219C6.50649 21.2219 5.94432 20.9408 5.5227 20.8002C4.96053 20.5192 4.5389 20.3786 4.11728 19.957C3.69565 19.5354 3.41456 19.1137 3.27402 18.5516C3.13348 18.1299 2.99294 17.5678 2.8524 16.4434C2.8524 15.1786 2.8524 14.8975 2.8524 11.665C2.8524 8.43253 2.8524 8.15145 2.8524 6.88657C2.8524 5.76223 3.13348 5.20006 3.27402 4.77843C3.55511 4.21627 3.69565 3.79464 4.11728 3.37301C4.5389 2.95139 4.96053 2.6703 5.5227 2.52976C5.94432 2.38922 6.50649 2.24867 7.63083 2.10813C8.89571 2.10813 9.31734 2.10813 12.4093 2.10813ZM12.4093 0C9.17679 0 8.89571 0 7.63083 0C6.36595 0 5.5227 0.281085 4.81999 0.562169C4.11728 0.843254 3.41457 1.26488 2.71185 1.96759C2.00914 2.6703 1.72806 3.23247 1.30643 4.07572C1.02535 4.77843 0.884805 5.62169 0.744263 6.88657C0.744263 8.15145 0.744263 8.57307 0.744263 11.665C0.744263 14.8975 0.744263 15.1786 0.744263 16.4434C0.744263 17.7083 1.02535 18.5516 1.30643 19.2543C1.58752 19.957 2.00914 20.6597 2.71185 21.3624C3.41457 22.0651 3.97673 22.3462 4.81999 22.7678C5.5227 23.0489 6.36595 23.1895 7.63083 23.33C8.89571 23.33 9.31734 23.33 12.4093 23.33C15.5012 23.33 15.9228 23.33 17.1877 23.33C18.4526 23.33 19.2958 23.0489 19.9985 22.7678C20.7013 22.4867 21.404 22.0651 22.1067 21.3624C22.8094 20.6597 23.0905 20.0975 23.5121 19.2543C23.7932 18.5516 23.9337 17.7083 24.0743 16.4434C24.0743 15.1786 24.0743 14.7569 24.0743 11.665C24.0743 8.57307 24.0743 8.15145 24.0743 6.88657C24.0743 5.62169 23.7932 4.77843 23.5121 4.07572C23.231 3.37301 22.8094 2.6703 22.1067 1.96759C21.404 1.26488 20.8418 0.983796 19.9985 0.562169C19.2958 0.281085 18.4526 0.140542 17.1877 0C15.9228 0 15.6417 0 12.4093 0Z" fill="white"/>
<path d="M12.4093 5.62169C9.03625 5.62169 6.36595 8.29199 6.36595 11.665C6.36595 15.038 9.03625 17.7083 12.4093 17.7083C15.7823 17.7083 18.4526 15.038 18.4526 11.665C18.4526 8.29199 15.7823 5.62169 12.4093 5.62169ZM12.4093 15.6002C10.3011 15.6002 8.47408 13.9137 8.47408 11.665C8.47408 9.55687 10.1606 7.72982 12.4093 7.72982C14.5174 7.72982 16.3444 9.41633 16.3444 11.665C16.3444 13.7731 14.5174 15.6002 12.4093 15.6002Z" fill="white"/>
<path d="M18.5931 6.88657C19.3693 6.88657 19.9985 6.25734 19.9985 5.48115C19.9985 4.70495 19.3693 4.07572 18.5931 4.07572C17.8169 4.07572 17.1877 4.70495 17.1877 5.48115C17.1877 6.25734 17.8169 6.88657 18.5931 6.88657Z" fill="white"/>
</svg>
