<svg width="21" height="21" viewBox="0 0 21 21" fill="none" xmlns="http://www.w3.org/2000/svg">
<path d="M5.24427 20.1671H0.994259V6.79211H5.24427V20.1671ZM3.11926 4.91711C1.74426 4.91711 0.744263 3.91711 0.744263 2.54211C0.744263 1.16711 1.86926 0.167114 3.11926 0.167114C4.49426 0.167114 5.49427 1.16711 5.49427 2.54211C5.49427 3.91711 4.49426 4.91711 3.11926 4.91711ZM20.7443 20.1671H16.4943V12.9171C16.4943 10.7921 15.6193 10.1671 14.3693 10.1671C13.1193 10.1671 11.8693 11.1671 11.8693 13.0421V20.1671H7.61926V6.79211H11.6193V8.66711C11.9943 7.79211 13.4943 6.41711 15.6193 6.41711C17.9943 6.41711 20.4943 7.79211 20.4943 11.9171V20.1671H20.7443Z" fill="white"/>
</svg>
