<svg width="19" height="18" viewBox="0 0 19 18" fill="none" xmlns="http://www.w3.org/2000/svg">
<g clip-path="url(#clip0_2_326)">
<path d="M14.4289 11.9082C13.8409 11.3276 13.1067 11.3276 12.5224 11.9082C12.0767 12.3502 11.6309 12.7922 11.1927 13.2417C11.0728 13.3653 10.9717 13.3915 10.8256 13.3091C10.5372 13.1518 10.2301 13.0244 9.95289 12.8521C8.66065 12.0393 7.57816 10.9943 6.61928 9.81816C6.14359 9.23384 5.72033 8.60832 5.42442 7.90414C5.36449 7.76181 5.37573 7.66817 5.49185 7.55206C5.93758 7.12131 6.37207 6.67932 6.81031 6.23734C7.42084 5.62306 7.42084 4.90389 6.80656 4.28587C6.45822 3.93378 6.10987 3.58918 5.76153 3.23709C5.40195 2.87751 5.04612 2.51418 4.68279 2.15835C4.09473 1.58527 3.36058 1.58527 2.77626 2.16209C2.32679 2.60408 1.89604 3.0573 1.43907 3.49179C1.01582 3.89257 0.802316 4.38325 0.757368 4.95633C0.686201 5.889 0.914685 6.76922 1.23681 7.62697C1.89604 9.4024 2.89987 10.9793 4.1172 12.4251C5.76153 14.3803 7.72424 15.9273 10.0203 17.0435C11.0541 17.5454 12.1254 17.9312 13.2902 17.9949C14.0918 18.0398 14.7885 17.8376 15.3466 17.212C15.7287 16.785 16.1594 16.3955 16.5639 15.9872C17.1632 15.3804 17.167 14.6463 16.5714 14.047C15.8597 13.3316 15.1443 12.6199 14.4289 11.9082Z" fill="#0177F9"/>
<path d="M13.7137 8.92211L15.0958 8.68614C14.8786 7.41637 14.2792 6.26646 13.3691 5.35253C12.4064 4.3899 11.1891 3.78311 9.84817 3.59583L9.6534 4.98545C10.6909 5.13153 11.6348 5.59974 12.3802 6.34512C13.0844 7.0493 13.5451 7.94076 13.7137 8.92211Z" fill="#0177F9"/>
<path d="M15.875 2.9141C14.2793 1.31846 12.2604 0.310887 10.0318 0L9.83702 1.38963C11.7623 1.65931 13.5077 2.53205 14.8861 3.90669C16.1934 5.21392 17.0511 6.86574 17.362 8.68237L18.7441 8.4464C18.3808 6.34135 17.3882 4.43108 15.875 2.9141Z" fill="#0177F9"/>
</g>
<defs>
<clipPath id="clip0_2_326">
<rect width="18" height="18" fill="white" transform="translate(0.744263)"/>
</clipPath>
</defs>
</svg>
