<svg width="24" height="17" viewBox="0 0 24 17" fill="none" xmlns="http://www.w3.org/2000/svg">
<path d="M22.8276 3.14628C22.5359 2.12545 21.8068 1.39628 20.786 1.10461C19.036 0.667115 11.5984 0.667114 11.5984 0.667114C11.5984 0.667114 4.30678 0.667115 2.41095 1.10461C1.39012 1.39628 0.660935 2.12545 0.369268 3.14628C0.0776017 5.04212 0.0776062 8.83378 0.0776062 8.83378C0.0776062 8.83378 0.0776106 12.6254 0.515111 14.5213C0.806777 15.5421 1.53594 16.2713 2.55677 16.5629C4.30677 17.0004 11.7443 17.0005 11.7443 17.0005C11.7443 17.0005 19.0359 17.0004 20.9318 16.5629C21.9526 16.2713 22.6818 15.5421 22.9735 14.5213C23.411 12.6254 23.4109 8.83378 23.4109 8.83378C23.4109 8.83378 23.4109 5.04212 22.8276 3.14628ZM9.41093 12.3338V5.33378L15.5359 8.83378L9.41093 12.3338Z" fill="white"/>
</svg>
